<?xml version="1.0" encoding="UTF-8"?><svg id="Calque_1" xmlns="http://www.w3.org/2000/svg" viewBox="0 0 283.46 283.46"><path d="m141.73,9.17C68.64,9.17,9.17,68.64,9.17,141.73s59.47,132.56,132.56,132.56,132.56-59.47,132.56-132.56S214.83,9.17,141.73,9.17Zm-50.58,98.35c4.48-13.7,17.35-23.59,32.55-23.59,10.96,0,20.72,5.16,26.98,13.16l.73,2.28c-5.93,16.63-10.52,38.36-11.54,41.41-1.02,3.06-3.05,7.47-5.6,9.84-.08.08-.18.16-.28.25-.11.03-.22.06-.33.09-3.48,2.51-14.54,7.87-22.47.46-.81-.76-1.63-1.57-2.43-2.42-7.65-8.79-14.91-21.52-16.74-26.89-2.03-5.94-.85-12.06-.85-14.26,0-.1,0-.21-.01-.34Zm74.62-45.54c-1.23-2.08-2.63-4.04-4.19-5.88l-.02-.03h0c-7.91-9.33-19.7-15.25-32.89-15.25-23.12,0-41.98,18.19-43.06,41.04l-17.11,158.09c-29.93-22.37-49.33-58.07-49.33-98.22,0-67.58,54.98-122.56,122.56-122.56s122.56,54.98,122.56,122.56c0,16.25-3.19,31.77-8.96,45.97l-89.56-125.73Z" fill="#c84861"/></svg>