<?xml version="1.0" encoding="UTF-8"?><svg id="Calque_1" xmlns="http://www.w3.org/2000/svg" viewBox="0 0 170.08 170.08"><path d="m101.22,43.93c-2.63,1.29-5.21,2.71-7.76,4.24,8.43-4.6,13.76-7.18,7.76-4.24Z" fill="#ab6ec4"/><path d="m124.66,87.11c6.52-11.91,9.79-21.54,9.79-28.9,0-4.25-1.12-7.6-3.36-10.07-2.09-2.3-4.86-3.51-8.29-3.67.08-.09.15-.17.23-.26l1.64-1.82,2.09-2.27,29.16-33.24h-6.9c-3.27,3.27-7.89,7.37-13.85,12.31-5.96,4.94-11.72,9.26-17.26,12.99-5.54,3.72-9.43,5.59-11.67,5.59-1.09,0-1.64-.45-1.64-1.36,0-1.45,2.6-4.48,7.81-9.08,7.21-6.36,10.81-12.17,10.81-17.44,0-2.48-.94-3.72-2.82-3.72-2.3,0-5.01,1.09-8.13,3.27-3.12,2.18-7.1,5.36-11.94,9.54v1.45c4.42-3.69,8.27-6.78,11.54-9.27,3.27-2.48,5.93-3.72,7.99-3.72,1.21,0,1.82.54,1.82,1.64,0,2.12-2.6,5.12-7.81,8.99-2.91,2.18-5.22,4.19-6.95,6.04-1.73,1.85-2.98,3.68-3.77,5.49-.79,1.82-1.18,3.72-1.18,5.72,0,1.15.33,2.06,1,2.72.67.67,1.51,1,2.54,1,1.69,0,3.65-.48,5.86-1.45,2.21-.97,4.74-2.44,7.59-4.41,2.85-1.97,5.3-3.74,7.36-5.31,2.06-1.57,6.3-4.84,12.72-9.81-9.45,10.36-17.14,19.35-23.07,26.98-11.14,5.15-20.31,10.07-27.52,14.76-7.2,4.69-12.52,8.96-15.94,12.81-3.42,3.84-5.13,7.04-5.13,9.58,0,3.51,1.88,5.27,5.63,5.27,5.09,0,11.54-3.67,19.35-10.99,7.54-7.07,17.35-17.35,29.4-30.8h0c3.34,0,6.48,1.26,8.34,3.5,1.86,2.24,2.79,5.25,2.79,9.05,0,7.21-3.28,16.67-9.84,28.39-6.56,11.72-15.1,23.46-25.6,35.22-10.51,11.76-21.47,21.45-32.88,29.07-11.42,7.62-21.83,11.44-31.23,11.44-4.7,0-8.4-1.42-11.09-4.27-2.69-2.84-4.04-6.24-4.04-10.18,0-4.25,1.42-9.52,4.27-15.82,2.84-6.3,6.66-13.18,11.44-20.65,4.78-7.47,10.05-14.85,15.82-22.13,5.77-7.28,11.72-14.07,17.86-20.37,8.18-8.41,16.82-15.31,25.92-20.74-8.42,4.59-19.93,11.19-26.38,16.3-11.45,9.25-21.16,18.45-29.13,27.59-7.97,9.14-13.92,17.94-17.86,26.4-3.94,8.46-5.92,16.63-5.92,24.52,0,6.98,1.84,12.21,5.52,15.7,3.68,3.49,8.44,5.23,14.28,5.23,9.79,0,20.48-3.87,32.09-11.61,11.61-7.74,22.64-17.56,33.11-29.47,10.47-11.91,18.96-23.82,25.49-35.73Zm-16.67-32.13c-2.76,3.36-5.31,6.49-7.67,9.4-4.42,5.21-8.28,9.39-11.58,12.54-3.3,3.15-6.28,5.46-8.95,6.95-2.66,1.48-5.06,2.22-7.18,2.22-1.09,0-2.01-.35-2.77-1.04-.76-.7-1.14-1.59-1.14-2.68,0-4.36,4.41-9.78,13.22-16.26,8.81-6.48,19.57-12.9,32.29-19.26-1.39,2.06-3.47,4.77-6.22,8.13Z" fill="#ab6ec4"/><path d="m98.62,151.14h40.58v-19.7h-40.58v19.7Zm4.58-7.12c.24-.48.56-.99.95-1.5.39-.51.81-1.01,1.25-1.5.04-.05.08-.09.13-.14-.71.54-1.26.99-1.62,1.32l-.42.39v-1.02l.08-.07c.93-.91,2.25-1.86,3.92-2.83l.06-.03h2.39l-5.06,5.76c-.75.86-1,1.21-1.08,1.35.02,0,.04,0,.07,0,.49,0,1.52-.35,3.63-2,1.74-1.35,3.69-3.05,5.81-5.04l.07-.07h2.31l-5.26,6.01c-.05.06-.17.2-.35.4-.16.18-.29.35-.37.49-.07.13-.08.21-.08.24.02,0,.05,0,.09,0,.32,0,1.07-.24,2.79-1.36,1.41-.92,2.8-2.08,4.14-3.45l.43-.44v.16l3.48-3c.31-.38.61-.75.89-1.09.62-.76.94-.68,1.25-.47.11.08.24.22.24.49,0,.35-.33.68-1.05,1.08.38.59.66,1.13.84,1.58.21.53.33,1.2.37,1.99-.03.4-.08.73-.13,1.02.37.06.7.03,1-.07.38-.13.92-.56,1.62-1.26l.43-.43v.15l3.48-3c.31-.38.61-.75.89-1.09.62-.76.94-.68,1.25-.47.11.08.24.22.24.49,0,.35-.33.68-1.05,1.08.38.59.66,1.13.84,1.58.21.53.33,1.2.37,1.99-.03.4-.08.73-.13,1.02.37.06.7.03,1-.07.38-.13.92-.56,1.62-1.26l.43-.43v1.05l-.05.07c-.6.75-1.14,1.2-1.67,1.38-.47.17-1.01.18-1.61.04-.36.71-.91,1.34-1.63,1.85-.78.55-1.59.97-2.4,1.23-.82.27-1.54.4-2.14.4s-1.09-.12-1.47-.36c-.41-.26-.63-.65-.63-1.13,0-.42.12-.76.37-1.02.25-.27.61-.41,1.08-.41.31,0,.57.09.78.26.22.18.33.43.33.73,0,.18-.06.44-.36.68-.22.18-.46.26-.71.26-.19,0-.42-.07-.61-.35v.02s.02.1.32.29c.25.16.53.23.87.23.68,0,1.42-.3,2.2-.91.8-.61,1.47-1.4,2.01-2.33.53-.92.8-1.82.8-2.67,0-.51-.14-1.05-.43-1.59l-4.31,3.69c-.49.56-.96.92-1.4,1.08-.47.17-1.01.18-1.61.04-.36.71-.91,1.34-1.63,1.85-.78.55-1.59.97-2.4,1.23-.82.27-1.54.4-2.14.4s-1.09-.12-1.47-.36c-.41-.26-.63-.65-.63-1.13,0-.42.12-.76.37-1.02.25-.27.61-.41,1.08-.41.31,0,.57.09.78.26.22.18.33.43.33.73,0,.18-.06.44-.36.68-.22.18-.46.26-.71.26-.19,0-.42-.07-.61-.35v.02s.02.1.32.29c.25.16.53.23.87.23.68,0,1.42-.3,2.2-.91.8-.61,1.47-1.4,2.01-2.33.53-.92.8-1.82.8-2.67,0-.51-.14-1.05-.43-1.59l-4.79,4.1c-1.15,1.09-2.32,2.03-3.47,2.79-1.44.95-2.48,1.41-3.18,1.41-.63,0-.99-.36-.99-.99,0-.51.22-1.13.68-1.88.18-.29.4-.62.66-.98-1.14.98-2.17,1.8-3.07,2.45-1.28.93-2.28,1.38-3.04,1.38-.38,0-1.03-.15-1.03-1.15,0-.43.13-.9.37-1.4Z" fill="#ab6ec4"/></svg>